<svg id="condominium_1_" data-name="condominium (1)" xmlns="http://www.w3.org/2000/svg" width="20.744" height="20.744" viewBox="0 0 20.744 20.744">
  <path id="Path_11183" data-name="Path 11183" d="M17.954,4.185V1.215h1.395V0H1.395V1.215H2.79V4.185H0V20.744H20.744V4.185ZM1.215,19.529V5.4H2.79V19.529Zm8.549-4.364v4.364H7.48V15.165Zm3.5,0v4.364H10.98V15.165Zm3.474,4.364H14.48V15.165h.685V13.949H5.58v1.215h.685v4.364H4.005V1.215H16.739Zm2.79,0H17.954V5.4h1.574Z" fill="#001136"/>
  <path id="Path_11184" data-name="Path 11184" d="M141.719,206.571h-4.005v4.005h4.005Zm-1.215,2.79h-1.574v-1.574H140.5Z" transform="translate(-132.134 -198.202)" fill="#001136"/>
  <path id="Path_11185" data-name="Path 11185" d="M279.434,206.571h-4.005v4.005h4.005Zm-1.215,2.79h-1.574v-1.574h1.574Z" transform="translate(-264.27 -198.202)" fill="#001136"/>
  <path id="Path_11186" data-name="Path 11186" d="M141.719,68.857h-4.005v4.005h4.005Zm-1.215,2.79h-1.574V70.072H140.5Z" transform="translate(-132.134 -66.067)" fill="#001136"/>
  <path id="Path_11187" data-name="Path 11187" d="M279.434,68.857h-4.005v4.005h4.005Zm-1.215,2.79h-1.574V70.072h1.574Z" transform="translate(-264.27 -66.067)" fill="#001136"/>
</svg>
