<svg xmlns="http://www.w3.org/2000/svg" width="31.259" height="38.51" viewBox="0 0 31.259 38.51">
  <g id="favorite_1_" data-name="favorite (1)" transform="translate(0 0)">
    <path id="Path_461" data-name="Path 461" d="M78.762,0h-29a1.128,1.128,0,0,0-1.128,1.128V37.381a1.128,1.128,0,0,0,1.633,1.009l14-7,14,7a1.128,1.128,0,0,0,1.633-1.009V1.128A1.128,1.128,0,0,0,78.762,0Z" transform="translate(-48.631 0)" fill="#fb7d76"/>
    <path id="Path_463" data-name="Path 463" d="M161.535,102.249a1.128,1.128,0,0,0-.911-.768l-4.423-.643-1.978-4.008a1.128,1.128,0,0,0-2.023,0l-1.978,4.008-4.423.643a1.128,1.128,0,0,0-.625,1.924l3.2,3.12-.756,4.4a1.128,1.128,0,0,0,1.637,1.189l3.956-2.08,3.956,2.08a1.143,1.143,0,0,0,.528.13,1.13,1.13,0,0,0,1.1-1.38l-.745-4.344,3.2-3.12A1.129,1.129,0,0,0,161.535,102.249Z" transform="translate(-137.582 -88.95)" fill="#fff"/>
  </g>
</svg>
