<svg xmlns="http://www.w3.org/2000/svg" width="23.695" height="29.191" viewBox="0 0 23.695 29.191">
  <g id="favorite" transform="translate(0 0)">
    <g id="Group_683" data-name="Group 683" transform="translate(0 0)">
      <path id="Path_465" data-name="Path 465" d="M71.04,0H49.055A.855.855,0,0,0,48.2.855V28.336a.855.855,0,0,0,1.238.765l10.61-5.3,10.61,5.3a.855.855,0,0,0,1.238-.765V.855A.855.855,0,0,0,71.04,0Zm-4.9,10.957-2.426,2.365.565,3.293a.856.856,0,0,1-.832,1.046h0a.854.854,0,0,1-.4-.1l-3-1.576-3,1.576a.855.855,0,0,1-1.241-.9l.573-3.339-2.426-2.365A.855.855,0,0,1,54.428,9.5l3.353-.487,1.5-3.038a.855.855,0,0,1,1.534,0l1.5,3.038,3.353.487a.855.855,0,0,1,.474,1.459Z" transform="translate(-48.2)" fill="#001136"/>
    </g>
  </g>
</svg>
