<svg xmlns="http://www.w3.org/2000/svg" width="24" height="26.34" viewBox="0 0 24 26.34">
  <g id="Group_2150" data-name="Group 2150" transform="translate(-1081 -850.66)" opacity="0.45">
    <g id="Group_2148" data-name="Group 2148" transform="translate(-2 -30)">
      <circle id="Ellipse_30" data-name="Ellipse 30" cx="11" cy="11" r="11" transform="translate(1085 885)" fill="#fb7d76" opacity="0.2"/>
    </g>
    <g id="condominium" transform="translate(1081 850.66)">
      <path id="Path_11174" data-name="Path 11174" d="M206.571,68.857h1.215v1.215h-1.215Z" transform="translate(-198.202 -66.067)" fill="#001136"/>
      <path id="Path_11175" data-name="Path 11175" d="M275.429,68.857h1.216v1.215h-1.216Z" transform="translate(-264.27 -66.067)" fill="#001136"/>
      <path id="Path_11176" data-name="Path 11176" d="M206.571,206.571h1.215v1.215h-1.215Z" transform="translate(-198.202 -198.202)" fill="#001136"/>
      <path id="Path_11177" data-name="Path 11177" d="M275.429,206.571h1.216v1.215h-1.216Z" transform="translate(-264.27 -198.202)" fill="#001136"/>
      <path id="Path_11178" data-name="Path 11178" d="M206.571,344.286h1.215V345.5h-1.215Z" transform="translate(-198.202 -330.337)" fill="#001136"/>
      <path id="Path_11179" data-name="Path 11179" d="M275.429,344.286h1.216V345.5h-1.216Z" transform="translate(-264.27 -330.337)" fill="#001136"/>
      <path id="Path_11180" data-name="Path 11180" d="M20.744,15.952V14.557a2,2,0,1,0-4.005,0v1.395a2.006,2.006,0,0,0,1.395,1.908v1.669H15.164V12.375h.787V11.159h-.787V6.8h.787V5.58h-.787V1.215h.787V0H4.792V1.215H5.58V5.58H4.792V6.8H5.58v4.364H4.792v1.215H5.58v7.154H2.61V17.86a2.006,2.006,0,0,0,1.395-1.908V14.557a2,2,0,1,0-4.005,0v1.395A2.006,2.006,0,0,0,1.395,17.86v1.669H0v1.215H20.744V19.529H19.349V17.86A2.006,2.006,0,0,0,20.744,15.952ZM1.215,14.557a.787.787,0,0,1,1.574,0v1.395a.787.787,0,1,1-1.574,0ZM6.8,1.215h7.154V5.58H6.8Zm0,5.58h7.154v4.364H6.8Zm2.79,12.734V17.954h1.574v1.574Zm2.79,0v-2.79H8.369v2.79H6.8V12.375h7.154v7.154Zm5.58-4.972a.787.787,0,1,1,1.574,0v1.395a.787.787,0,0,1-1.574,0V14.557Z" transform="translate(0 0)" fill="#001136"/>
    </g>
  </g>
</svg>
