<svg id="Group_27" data-name="Group 27" xmlns="http://www.w3.org/2000/svg" width="25.913" height="25.907" viewBox="0 0 25.913 25.907">
  <path id="Path_47" data-name="Path 47" d="M1793.2,258.089a9.8,9.8,0,0,0-.237-1.365,6.393,6.393,0,0,0-.452-1.56,12.515,12.515,0,0,0-2.354-3.973,10.848,10.848,0,0,0-1.949-1.751,12.192,12.192,0,0,0-4.6-2.064c-.188-.046-.375-.09-.563-.138-.5-.127-1.019-.11-1.514-.257h-2.4a.182.182,0,0,0-.005.054,7.4,7.4,0,0,0-1.424.209,6.587,6.587,0,0,0-1.5.358,7.944,7.944,0,0,0-1.571.6,6.36,6.36,0,0,0-1.225.635,8.013,8.013,0,0,0-1.292.861,9.7,9.7,0,0,0-1.3,1.173,7.538,7.538,0,0,0-1.038,1.24,9.867,9.867,0,0,0-1.485,2.664,11.852,11.852,0,0,0-.907,4.87,10.2,10.2,0,0,0,.255,2.469,10.581,10.581,0,0,0,.991,2.987,11.519,11.519,0,0,0,2.657,3.6,1.279,1.279,0,0,1,.509.934c.012.7.044,1.4.062,2.1a1.049,1.049,0,0,0,1.573,1.019q1.156-.5,2.306-1.024a1.4,1.4,0,0,1,.975-.08,10.478,10.478,0,0,0,2.487.4,11.323,11.323,0,0,0,3.377-.127,10.951,10.951,0,0,0,2.924-.791,11.446,11.446,0,0,0,3.518-2.132,10.962,10.962,0,0,0,2.14-2.394,3.148,3.148,0,0,0,.593-1.031.218.218,0,0,0,.131-.133,10.567,10.567,0,0,0,.771-1.9,4.338,4.338,0,0,0,.295-1.026,8.242,8.242,0,0,0,.256-1.5c.056-.082-.021-.209.093-.272v-2.338C1793.171,258.329,1793.258,258.19,1793.2,258.089Zm-11.883,5c-.894-.694-1.807-1.366-2.713-2.046a.836.836,0,0,0-1.2,0c-.6.456-1.2.917-1.8,1.377l-2.142,1.629c-.491.231-.712.164-1.017-.311a.869.869,0,0,1,.166-.631c.263-.413.517-.832.775-1.248q1.076-1.7,2.15-3.389c.063-.1.121-.2.181-.3.141-.216.294-.425.418-.65a2.251,2.251,0,0,1,1.619-1.245.51.51,0,0,0-.1-.21.5.5,0,0,1,.1.21,2.322,2.322,0,0,1,1.585.527c.878.68,1.774,1.335,2.66,2a.876.876,0,0,0,1.3,0c.127-.1.248-.205.373-.307l1.357-1.026.976-.744q.5-.382,1-.767c.208-.114.379-.308.656-.252.477.1.63.491.4,1.046a10.349,10.349,0,0,0-.689,1.075,5.179,5.179,0,0,0-.471.763c-.378.526-.708,1.082-1.042,1.637-.205.327-.41.653-.617.98-.266.416-.542.826-.794,1.248a2.434,2.434,0,0,1-1.113,1.032A2.083,2.083,0,0,1,1781.319,263.088Z" transform="translate(-1767.376 -246.98)" fill="#fff"/>
  <path id="Path_48" data-name="Path 48" d="M1844.214,314.94h0a.51.51,0,0,0-.1-.21A.5.5,0,0,1,1844.214,314.94Z" transform="translate(-1833.828 -305.648)" fill="#604595"/>
  <path id="Path_49" data-name="Path 49" d="M1844.214,314.94h0a.51.51,0,0,0-.1-.21A.5.5,0,0,1,1844.214,314.94Z" transform="translate(-1833.828 -305.648)" fill="#724393"/>
  <path id="Path_50" data-name="Path 50" d="M1820.788,313.071a10.362,10.362,0,0,0-.689,1.075,5.181,5.181,0,0,0-.471.763c-.378.525-.708,1.082-1.042,1.637q-.308.491-.617.98c-.265.416-.542.826-.794,1.248a2.434,2.434,0,0,1-1.113,1.032,2.083,2.083,0,0,1-2.03-.4c-.894-.694-1.807-1.366-2.713-2.046a.836.836,0,0,0-1.2,0c-.6.456-1.2.917-1.8,1.377l-2.142,1.629c-.491.231-.712.164-1.017-.311a.868.868,0,0,1,.166-.631c.263-.413.517-.833.775-1.248q1.076-1.7,2.15-3.389c.063-.1.121-.2.181-.3.141-.216.294-.425.418-.65a2.251,2.251,0,0,1,1.619-1.245h0a2.322,2.322,0,0,1,1.585.527c.878.68,1.774,1.335,2.66,2a.876.876,0,0,0,1.3,0c.127-.1.248-.205.373-.307l1.357-1.026.976-.744q.5-.382,1-.767c.208-.114.379-.308.656-.252C1820.865,312.122,1821.018,312.516,1820.788,313.071Z" transform="translate(-1800.09 -303.297)" fill="#3259fc"/>
</svg>
