<svg aria-hidden="true" style="position: absolute; width: 0; height: 0; overflow: hidden;" version="1.1" xmlns="http://www.w3.org/2000/svg" xmlns:xlink="http://www.w3.org/1999/xlink">
<defs>

<symbol id="icon-arrow" viewBox="0 0 47 32">
<path fill="#fff" style="fill: var(--color1, #fff)" d="M45.868 14.473l-13.837-13.84c-0.374-0.314-0.861-0.505-1.392-0.505-1.199 0-2.171 0.972-2.171 2.171 0 0.531 0.191 1.018 0.508 1.395l-0.003-0.003 10.147 10.147h-36.949c-1.117 0.098-1.987 1.029-1.987 2.163s0.87 2.065 1.979 2.162l0.008 0.001h36.949l-10.147 10.147c-0.314 0.374-0.505 0.861-0.505 1.392 0 1.199 0.972 2.171 2.171 2.171 0.531 0 1.018-0.191 1.395-0.508l-0.003 0.003 13.837-13.837c0.389-0.392 0.63-0.932 0.63-1.529s-0.24-1.137-0.63-1.529l0 0z"></path>
</symbol>

<symbol id="icon-live-chat" viewBox="0 0 36 32">
<path fill="#fff" style="fill: var(--color1, #fff)" d="M33.2 8.539h-2.235c-2.155-5.033-7.066-8.494-12.785-8.494s-10.63 3.462-12.751 8.404l-0.034 0.090h-2.196c-1.765 0.005-3.195 1.435-3.199 3.2v4.266c0.005 1.765 1.434 3.194 3.198 3.199h4.38l-0.458-1.399c-0.455-1.203-0.719-2.594-0.719-4.047 0-6.488 5.259-11.747 11.747-11.747 5.127 0 9.487 3.285 11.090 7.864l0.025 0.082 0.009 0.023c0.219 0.561 0.393 1.217 0.494 1.898l0.006 0.050c0.099 0.573 0.156 1.232 0.156 1.905 0 1.413-0.25 2.767-0.707 4.022l0.026-0.082v0.012c-1.651 4.585-5.959 7.806-11.020 7.815h-0.001c-0.006-0-0.014-0-0.021-0-1.767 0-3.199 1.432-3.199 3.199s1.432 3.199 3.199 3.199c1.767 0 3.199-1.432 3.199-3.199v0-1.438c4.355-1.072 7.838-4.096 9.519-8.069l0.034-0.091h2.248c1.765-0.005 3.194-1.434 3.199-3.198v-4.265c-0.004-1.767-1.436-3.197-3.202-3.2h-0z"></path>
<path fill="#fff" style="fill: var(--color1, #fff)" d="M8.602 21.336v2.133h9.598c5.3-0 9.596-4.297 9.596-9.597s-4.297-9.597-9.597-9.597-9.597 4.297-9.597 9.597c0 2.246 0.772 4.313 2.065 5.948l-0.015-0.020c-0.262 0.894-1.076 1.536-2.038 1.536-0.004 0-0.008 0-0.013-0h0.001zM21.399 12.805h2.131v2.128h-2.133zM17.133 12.805h2.133v2.128h-2.133zM12.867 12.805h2.133v2.128h-2.133z"></path>
</symbol>

<symbol id="icon-facebook" viewBox="0 0 17 32">
<path fill="#fb7d76" style="fill: var(--color1, #fb7d76)" d="M16.648 0h-4.149c-0.123-0.007-0.267-0.012-0.412-0.012-4.024 0-7.287 3.262-7.287 7.287 0 0.211 0.009 0.42 0.027 0.626l-0.002-0.027v3.632h-4.172c-0.359 0-0.651 0.291-0.651 0.651v0 5.254c0 0.359 0.291 0.651 0.651 0.651v0h4.172v13.275c0 0.359 0.291 0.651 0.651 0.651v0h5.443c0.359 0 0.651-0.291 0.651-0.651v0-13.265h4.882c0.359 0 0.651-0.291 0.651-0.651v0-5.263c0-0.359-0.291-0.651-0.651-0.651v0h-4.882v-3.080c0-1.479 0.353-2.231 2.278-2.231h2.796c0.359 0 0.651-0.291 0.651-0.651v0-4.882c0-0.004 0-0.008 0-0.013 0-0.358-0.289-0.648-0.646-0.651h-0z"></path>
</symbol>

<symbol id="icon-twitter" viewBox="0 0 39 32">
<path fill="#fb7d76" style="fill: var(--color1, #fb7d76)" d="M39.386 3.789c-1.354 0.607-2.924 1.055-4.569 1.266l-0.084 0.009c1.672-1.006 2.927-2.558 3.531-4.406l0.016-0.057c-1.474 0.89-3.189 1.568-5.016 1.937l-0.103 0.017c-1.477-1.573-3.57-2.553-5.892-2.553-4.459 0-8.074 3.615-8.074 8.074v0c-0 0.025-0 0.054-0 0.083 0 0.623 0.069 1.23 0.199 1.814l-0.010-0.055c-6.73-0.34-12.65-3.542-16.61-8.404l-0.033-0.042c-0.695 1.168-1.106 2.576-1.106 4.080 0 2.785 1.41 5.241 3.554 6.693l0.028 0.018c-1.342-0.039-2.591-0.404-3.681-1.018l0.040 0.021v0.088c0.008 3.892 2.754 7.139 6.415 7.919l0.053 0.009c-0.615 0.168-1.322 0.265-2.051 0.265-0.024 0-0.047-0-0.071-0l0.004 0c-0.038 0.001-0.083 0.001-0.128 0.001-0.496 0-0.98-0.051-1.447-0.147l0.046 0.008c1.074 3.231 4.031 5.536 7.538 5.627l0.011 0c-2.726 2.148-6.209 3.445-9.995 3.445-0.007 0-0.014 0-0.020 0h0.001c-0.040 0-0.087 0.001-0.134 0.001-0.633 0-1.257-0.039-1.869-0.114l0.073 0.007c3.48 2.272 7.74 3.624 12.316 3.624 0.025 0 0.049-0 0.074-0h-0.004c0.047 0 0.103 0.001 0.159 0.001 12.604 0 22.822-10.218 22.822-22.822 0-0.054-0-0.107-0.001-0.161l0 0.008c0-0.357-0.013-0.701-0.029-1.043 1.599-1.153 2.943-2.543 4.011-4.133l0.037-0.058z"></path>
</symbol>

<symbol id="icon-instagram" viewBox="0 0 32 32">
<path fill="#fb7d76" style="fill: var(--color1, #fb7d76)" d="M16.005 7.784c-4.535 0-8.211 3.676-8.211 8.211s3.676 8.211 8.211 8.211c4.535 0 8.211-3.676 8.211-8.211v0c0-0.001 0-0.001 0-0.002 0-4.534-3.675-8.209-8.209-8.209-0.001 0-0.001 0-0.002 0h0zM16.005 21.331c-2.943 0-5.329-2.386-5.329-5.329s2.386-5.329 5.329-5.329c2.943 0 5.329 2.386 5.329 5.329v0c-0.003 2.94-2.387 5.322-5.327 5.322-0.001 0-0.001 0-0.002 0h0z"></path>
<path fill="#fb7d76" style="fill: var(--color1, #fb7d76)" d="M22.597 0.1c-2.943-0.137-10.236-0.13-13.182 0-0.051-0.001-0.112-0.002-0.173-0.002-2.534 0-4.837 0.985-6.548 2.594l0.005-0.005c-3.077 3.078-2.684 7.225-2.684 13.306 0 6.225-0.339 10.275 2.684 13.306 3.089 3.089 7.296 2.684 13.306 2.684 6.165 0 8.297 0 10.473-0.847 2.963-1.151 5.202-3.8 5.419-8.558 0.139-2.945 0.13-10.236 0-13.182-0.262-5.612-3.28-9.019-9.3-9.296zM27.262 27.26c-2.017 2.017-4.816 1.837-11.291 1.837-6.667 0-9.34 0.098-11.291-1.863-2.247-2.237-1.841-5.827-1.841-11.271 0-7.368-0.755-12.673 6.638-13.050 1.693-0.059 2.201-0.080 6.475-0.080l0.059 0.041c7.112 0 12.679-0.743 13.015 6.648 0.076 1.693 0.093 2.201 0.093 6.463-0.005 6.595 0.12 9.284-1.858 11.274z"></path>
<path fill="#fb7d76" style="fill: var(--color1, #fb7d76)" d="M26.46 7.459c0 1.060-0.859 1.918-1.919 1.918s-1.919-0.859-1.919-1.918c0-1.060 0.859-1.918 1.919-1.918s1.919 0.859 1.919 1.918z"></path>
</symbol>

<symbol id="icon-linkedin" viewBox="0 0 32 32">
<path fill="#fb7d76" style="fill: var(--color1, #fb7d76)" d="M31.991 32v0-11.738c0-5.741-1.235-10.163-7.949-10.163-0.076-0.003-0.166-0.005-0.255-0.005-2.551 0-4.782 1.37-5.997 3.415l-0.018 0.032h-0.093v-2.906h-6.361v21.363h6.633v-10.578c0-2.785 0.536-5.478 3.977-5.478 3.396 0 3.45 3.178 3.45 5.657v10.401z"></path>
<path fill="#fb7d76" style="fill: var(--color1, #fb7d76)" d="M0.534 10.635h6.628v21.363h-6.628z"></path>
<path fill="#fb7d76" style="fill: var(--color1, #fb7d76)" d="M3.843 0c-0.005-0-0.012-0-0.018-0-2.132 0-3.861 1.729-3.861 3.861s1.729 3.861 3.861 3.861c2.132 0 3.861-1.729 3.861-3.861 0-0.006 0-0.013-0-0.019v0.001c0-2.122-1.721-3.843-3.843-3.843v0z"></path>
</symbol>

<symbol id="icon-play" viewBox="0 0 33 32">
<path fill="#fff" style="fill: var(--color1, #fff); stroke: var(--color1, #fff)" stroke="#fff" stroke-linejoin="round" stroke-linecap="round" stroke-miterlimit="4" stroke-width="5.1053" d="M2.553 2.553l27.569 14.024-27.569 12.86z"></path>
</symbol>

<symbol id="icon-favorite" viewBox="0 0 27 32">
<path fill="none"  stroke="#3259fc" style="stroke: var(--color1, #3259fc)" stroke-linejoin="miter" stroke-linecap="butt" stroke-miterlimit="4" stroke-width="2.9074" d="M24.201 1.454h-21.895c-0.47 0-0.852 0.381-0.852 0.852v0 27.369c0 0.47 0.381 0.852 0.852 0.852 0.139 0 0.27-0.033 0.386-0.092l-0.005 0.002 10.567-5.287 10.567 5.283c0.111 0.057 0.242 0.090 0.381 0.090 0.47 0 0.852-0.381 0.852-0.852v0-27.364c0-0.47-0.381-0.852-0.852-0.852v0zM19.321 12.367l-2.416 2.355 0.563 3.28c0.014 0.057 0.022 0.123 0.022 0.19 0 0.47-0.38 0.851-0.85 0.852h-0c-0 0-0.001 0-0.002 0-0.145 0-0.281-0.036-0.4-0.1l0.005 0.002-2.987-1.57-2.987 1.57c-0.115 0.062-0.251 0.098-0.396 0.098-0.47 0-0.852-0.381-0.852-0.852 0-0.051 0.004-0.101 0.013-0.149l-0.001 0.005 0.563-3.326-2.416-2.355c-0.159-0.155-0.258-0.371-0.258-0.611 0-0.428 0.315-0.782 0.726-0.843l0.005-0.001 3.343-0.486 1.493-3.025c0.142-0.284 0.431-0.475 0.764-0.475s0.622 0.191 0.762 0.47l0.002 0.005 1.493 3.027 3.343 0.486c0.415 0.062 0.73 0.416 0.73 0.843 0 0.239-0.099 0.456-0.258 0.61l-0 0z"></path>
</symbol>

<symbol id="icon-search" viewBox="0 0 33 32">
<path fill="none"  stroke="#3259fc" style="stroke: var(--color1, #3259fc)" stroke-linejoin="miter" stroke-linecap="butt" stroke-miterlimit="4" stroke-width="3.5939" d="M30.189 15.094c0 8.336-6.758 15.094-15.094 15.094s-15.094-6.758-15.094-15.094c0-8.336 6.758-15.094 15.094-15.094s15.094 6.758 15.094 15.094z"></path>
<path fill="none"  stroke="#3259fc" style="stroke: var(--color1, #3259fc)" stroke-linejoin="miter" stroke-linecap="butt" stroke-miterlimit="4" stroke-width="3.5939" d="M28.392 15.094c0 7.344-5.953 13.297-13.297 13.297s-13.297-5.953-13.297-13.297c0-7.344 5.953-13.297 13.297-13.297s13.297 5.953 13.297 13.297z"></path>
<path fill="none" stroke="#3259fc" style="stroke: var(--color1, #3259fc)" stroke-linejoin="miter" stroke-linecap="round" stroke-miterlimit="4" stroke-width="2.8751" d="M24.973 24.477l5.732 5.487"></path>
</symbol>

<symbol id="icon-house" viewBox="0 0 32 32">
<path fill="#3259fc" style="fill: var(--color1, #3259fc)" d="M31.564 13.677l-14.663-13.332c-0.090-0.082-0.192-0.152-0.303-0.208l-0.008-0.004h-0.015c-0.167-0.081-0.364-0.128-0.571-0.128s-0.404 0.047-0.579 0.132l0.008-0.003h-0.015c-0.119 0.059-0.221 0.13-0.311 0.212l0.001-0.001-0.136 0.125-14.535 13.207c-0.269 0.245-0.436 0.596-0.436 0.987 0 0.346 0.132 0.661 0.348 0.898l-0.001-0.001c0.245 0.269 0.596 0.436 0.987 0.436 0.346 0 0.661-0.132 0.898-0.348l-0.001 0.001 0.436-0.397v15.412c0 0.737 0.597 1.334 1.334 1.334v0h23.998c0.737 0 1.334-0.597 1.334-1.334v0-15.411l0.436 0.397c0.236 0.215 0.551 0.346 0.897 0.346 0.737 0 1.334-0.597 1.334-1.334 0-0.391-0.168-0.743-0.436-0.987l-0.001-0.001zM13.333 29.332v-7.998c0-1.473 1.194-2.667 2.667-2.667s2.667 1.194 2.667 2.667v0 7.998zM26.667 29.332h-5.334v-7.998c-0.048-2.909-2.417-5.249-5.333-5.249s-5.285 2.34-5.333 5.244l-0 0.005v7.998h-5.334v-16.501l10.663-9.697 10.667 9.697z"></path>
</symbol>

<symbol id="icon-portfolio" viewBox="0 0 36 32">
<path fill="#3259fc" style="fill: var(--color1, #3259fc); stroke: var(--color1, #3259fc)"  stroke="#3259fc" stroke-linejoin="miter" stroke-linecap="butt" stroke-miterlimit="4" stroke-width="0.7222" d="M32.82 4.531h-6.269l-1.156-3.458c-0.142-0.416-0.529-0.71-0.985-0.712h-12.511c-0.458 0-0.847 0.295-0.987 0.706l-0.002 0.007-1.156 3.458h-6.266c-1.726 0.002-3.124 1.4-3.127 3.126v6.256c0 0.406 0.233 0.758 0.572 0.93l0.006 0.003 0.464 0.231v13.434c0.002 1.726 1.401 3.125 3.127 3.127h27.249c1.726-0.002 3.125-1.401 3.127-3.127v-13.434l0.464-0.231c0.345-0.175 0.578-0.527 0.578-0.933v-6.256c-0.002-1.726-1.401-3.125-3.127-3.127h-0zM12.651 2.447h11.009l0.695 2.086h-12.398zM32.82 28.512c-0.001 0.576-0.467 1.042-1.043 1.043h-27.246c-0.576-0.001-1.042-0.467-1.043-1.043v-12.395l9.534 4.738c0.326 1.408 1.568 2.442 3.052 2.444h4.17c1.484-0.002 2.727-1.036 3.048-2.423l0.004-0.021 9.534-4.738zM15.027 20.171c0.001-0.576 0.467-1.042 1.043-1.043h4.17c0.576 0 1.043 0.467 1.043 1.043s-0.467 1.043-1.043 1.043v0h-4.17c-0.576-0.001-1.042-0.467-1.043-1.043v-0zM33.863 13.269l-10.876 5.408c-0.541-0.979-1.566-1.632-2.744-1.634h-4.173c-1.178 0.002-2.204 0.654-2.736 1.618l-0.008 0.016-10.879-5.408v-5.61c0.001-0.576 0.467-1.042 1.043-1.043h29.331c0.576 0.001 1.042 0.467 1.043 1.043v0z"></path>
</symbol>

<symbol id="icon-furniture" viewBox="0 0 32 32">
<path stroke-linejoin="miter" stroke-linecap="butt" stroke-miterlimit="4" stroke-width="0.5555" d="M20.234 17.627h-0.196v-3.751c0-1.184-0.96-2.144-2.144-2.144v0h-13.222c-1.184 0.001-2.143 0.96-2.144 2.144v3.751h-0.361c-1.044 0.001-1.889 0.847-1.89 1.89v10.317c0.001 1.044 0.847 1.889 1.89 1.89h1.872c1.044-0.001 1.889-0.847 1.89-1.89v-1.165h10.543v1.165c0.001 1.044 0.847 1.889 1.89 1.89h1.872c1.044-0.001 1.889-0.847 1.89-1.89v-10.317c-0.001-1.044-0.847-1.889-1.89-1.89h-0zM4.449 29.834c0 0.226-0.183 0.409-0.409 0.409v0h-1.874c-0.226 0-0.409-0.183-0.409-0.409v0-10.317c0-0.226 0.183-0.409 0.409-0.409v0h1.872c0.226 0 0.409 0.183 0.409 0.409v0zM16.473 27.188h-10.543v-3.561h10.543zM16.473 19.517v2.631h-10.543v-2.631c-0.001-1.044-0.847-1.889-1.89-1.89h-0.022v-3.751c0.001-0.366 0.297-0.662 0.663-0.663h13.222c0.366 0.001 0.662 0.297 0.663 0.663v3.751h-0.185c-0.005-0-0.011-0-0.017-0-1.044 0-1.891 0.846-1.892 1.89v0zM20.645 29.834c0 0.226-0.183 0.409-0.409 0.409v0h-1.872c-0.226 0-0.409-0.183-0.409-0.409v0-10.317c0-0.226 0.183-0.409 0.409-0.409v0h1.872c0.226 0 0.409 0.183 0.409 0.409v0z"></path>
<path stroke-linejoin="miter" stroke-linecap="butt" stroke-miterlimit="4" stroke-width="0.5555" d="M31.935 24.451c-0.137-0.167-0.343-0.272-0.574-0.272-0 0-0 0-0 0h-2.27v-3.596h1.152c0.409 0 0.741-0.332 0.741-0.741s-0.332-0.741-0.741-0.741h-1.152v-3.223c0-0.409-0.332-0.741-0.741-0.741s-0.741 0.332-0.741 0.741v0 0.642h-0.937c-0.409 0-0.741 0.332-0.741 0.741s0.332 0.741 0.741 0.741h0.937v6.177h-2.272c-0 0-0 0-0 0-0.409 0-0.741 0.332-0.741 0.741 0 0.042 0.003 0.083 0.010 0.123l-0.001-0.004 0.989 6.062c0.059 0.355 0.364 0.622 0.731 0.622 0 0 0 0 0 0h3.785c0 0 0 0 0.001 0 0.356 0 0.653-0.251 0.724-0.586l0.001-0.005 1.248-6.062c0.010-0.046 0.016-0.098 0.016-0.152 0-0.178-0.063-0.341-0.167-0.468l0.001 0.001zM29.51 30.241h-2.551l-0.741-4.581h4.244z"></path>
<path stroke-linejoin="miter" stroke-linecap="butt" stroke-miterlimit="4" stroke-width="0.5555" d="M9.498 16.923c0.544 0.128 0.882 0.674 0.753 1.218s-0.674 0.882-1.218 0.753c-0.544-0.128-0.882-0.674-0.753-1.218s0.674-0.882 1.218-0.753z"></path>
<path stroke-linejoin="miter" stroke-linecap="butt" stroke-miterlimit="4" stroke-width="0.5555" d="M13.455 16.923c0.544 0.128 0.882 0.674 0.753 1.218s-0.674 0.882-1.218 0.753c-0.544-0.128-0.882-0.674-0.753-1.218s0.674-0.882 1.218-0.753z"></path>
<path stroke-linejoin="miter" stroke-linecap="butt" stroke-miterlimit="4" stroke-width="0.5555" d="M25.61 12.79c3.455 0 6.256-2.801 6.256-6.256s-2.801-6.256-6.256-6.256c-3.455 0-6.256 2.801-6.256 6.256v0c0.004 3.454 2.803 6.252 6.256 6.256h0zM25.61 1.759c2.637 0 4.775 2.138 4.775 4.775s-2.138 4.775-4.775 4.775c-2.637 0-4.775-2.138-4.775-4.775v0c0.003-2.636 2.139-4.772 4.775-4.775h0z"></path>
<path stroke-linejoin="miter" stroke-linecap="butt" stroke-miterlimit="4" stroke-width="0.5555" d="M26.134 7.828c0.132 0.126 0.312 0.203 0.51 0.203 0.409 0 0.741-0.332 0.741-0.741 0-0.198-0.078-0.378-0.204-0.511l0 0-0.831-0.831v-1.692c0-0.409-0.332-0.741-0.741-0.741s-0.741 0.332-0.741 0.741v0 1.994c0 0 0 0 0 0.001 0 0.204 0.083 0.389 0.217 0.523v0z"></path>
</symbol>

<symbol id="icon-villa" viewBox="0 0 29 32">
<path fill="#fb7d76" style="fill: var(--color1, #fb7d76)" opacity="0.15" d="M29.156 18.636c0 7.381-5.983 13.364-13.364 13.364s-13.364-5.983-13.364-13.364c0-7.381 5.983-13.364 13.364-13.364s13.364 5.983 13.364 13.364z"></path>
<path fill="#001136" style="fill: var(--color2, #001136)" d="M25.202 18.424v-4.867h-5.084v-3.935l1.695 1.017v-5.112l-9.211-5.527-2.651 1.59v-1.59h-4.866v4.51l-1.695 1.017v5.112l1.695-1.017v3.936h-5.084v4.866h1.695v5.302h-1.695v1.476h25.202v-1.476h-1.695v-5.302zM23.725 15.034v1.912h-3.608v-1.912zM14.405 23.725h-3.608v-3.499c0.026-0.976 0.824-1.757 1.803-1.757s1.777 0.781 1.803 1.755l0 0.002v3.499zM12.601 16.946c-1.812 0-3.28 1.469-3.28 3.28v0 3.499h-2.76v-8.691h12.081v8.691h-2.76v-3.499c0-1.812-1.469-3.28-3.28-3.28v0zM6.56 1.476h1.912v1l-1.912 1.148zM4.866 6.364l7.735-4.641 7.735 4.641v1.667l-7.735-4.641-7.735 4.641zM12.601 5.112l6.040 3.623v4.822h-12.081v-4.822zM1.476 15.034h3.608v1.912h-3.608zM3.171 18.424h1.913v5.302h-1.913zM22.029 23.725h-1.912v-5.302h1.912z"></path>
<path fill="#001136" style="fill: var(--color2, #001136)" d="M12.601 12.323c1.342 0 2.43-1.088 2.43-2.43s-1.088-2.43-2.43-2.43c-1.342 0-2.43 1.088-2.43 2.43v0c0 1.342 1.088 2.43 2.43 2.43v0zM12.601 8.933c0.528 0 0.956 0.428 0.956 0.956s-0.428 0.956-0.956 0.956c-0.528 0-0.956-0.428-0.956-0.956v0c0-0.528 0.428-0.957 0.956-0.957h0z"></path>
</symbol>

<symbol id="icon-list" viewBox="0 0 47 32">
<path fill="#fff" style="fill: var(--color3, #fff)" d="M40.722 0h-29.076c-1.606 0-2.907 1.302-2.907 2.907s1.302 2.907 2.907 2.907h29.076c1.606 0 2.907-1.302 2.907-2.907s-1.302-2.907-2.907-2.907v0z"></path>
<path fill="#fff" style="fill: var(--color3, #fff)" d="M5.831 2.907c0-1.606-1.302-2.907-2.907-2.907s-2.907 1.302-2.907 2.907v0c-0.010 0.085-0.016 0.184-0.016 0.284s0.006 0.199 0.017 0.296l-0.001-0.012c0.036 0.209 0.091 0.396 0.165 0.572l-0.006-0.017c0.087 0.191 0.179 0.353 0.283 0.505l-0.008-0.012c0.111 0.17 0.233 0.318 0.369 0.451l0 0c0.129 0.129 0.272 0.244 0.426 0.343l0.010 0.006c0.143 0.105 0.305 0.197 0.478 0.27l0.016 0.006c0.176 0.093 0.38 0.169 0.594 0.215l0.016 0.003c0.085 0.010 0.184 0.016 0.284 0.016s0.199-0.006 0.296-0.017l-0.012 0.001c0 0 0.001 0 0.002 0 0.799 0 1.522-0.322 2.048-0.843l-0 0c0.137-0.134 0.259-0.281 0.364-0.441l0.006-0.010c0.097-0.141 0.189-0.303 0.267-0.473l0.009-0.021c0.086-0.159 0.16-0.343 0.214-0.536l0.005-0.019c0.007-0.071 0.011-0.153 0.011-0.236 0-0.117-0.008-0.232-0.024-0.345l0.002 0.013z"></path>
<path fill="#fff" style="fill: var(--color3, #fff)" d="M5.831 15.99c0.010-0.085 0.016-0.184 0.016-0.284s-0.006-0.199-0.017-0.296l0.001 0.012c-0.056-0.205-0.13-0.384-0.224-0.55l0.006 0.012c-0.083-0.195-0.175-0.362-0.282-0.518l0.006 0.010c-0.107-0.166-0.229-0.31-0.368-0.435l-0.002-0.002c-0.525-0.519-1.247-0.839-2.044-0.839-1.6 0-2.898 1.292-2.907 2.89v0.001c-0 0.005-0 0.012-0 0.018 0 0.594 0.179 1.147 0.486 1.607l-0.007-0.011c0.113 0.163 0.234 0.306 0.369 0.436l0.001 0.001c0.127 0.141 0.27 0.263 0.428 0.365l0.008 0.005c0.143 0.105 0.305 0.197 0.478 0.27l0.016 0.006c0.16 0.069 0.346 0.124 0.54 0.157l0.014 0.002c0.158 0.037 0.339 0.058 0.525 0.058 0.015 0 0.030-0 0.045-0l-0.002 0c0.085 0.010 0.184 0.016 0.284 0.016s0.199-0.006 0.296-0.017l-0.012 0.001c0.202-0.035 0.383-0.090 0.553-0.165l-0.015 0.006c0.194-0.078 0.362-0.17 0.516-0.281l-0.007 0.005c0.166-0.107 0.309-0.229 0.435-0.368l0.002-0.002c0.141-0.127 0.263-0.27 0.365-0.428l0.005-0.008c0.105-0.143 0.198-0.305 0.27-0.478l0.006-0.015c0.093-0.176 0.168-0.38 0.215-0.594l0.003-0.016c0.010-0.083 0.016-0.179 0.016-0.276 0-0.103-0.006-0.204-0.019-0.303l0.001 0.012z"></path>
<path fill="#fff" style="fill: var(--color3, #fff)" d="M5.831 29.074c0.010-0.085 0.016-0.184 0.016-0.284s-0.006-0.199-0.017-0.296l0.001 0.012c-0.056-0.211-0.13-0.396-0.225-0.568l0.006 0.013c-0.087-0.191-0.179-0.353-0.283-0.506l0.008 0.012c-0.107-0.166-0.229-0.309-0.368-0.435l-0.002-0.002c-0.526-0.523-1.25-0.846-2.050-0.846s-1.524 0.323-2.050 0.846l0-0c-0.141 0.127-0.263 0.27-0.365 0.428l-0.005 0.008c-0.090 0.144-0.176 0.31-0.247 0.484l-0.008 0.023c-0.070 0.16-0.125 0.347-0.157 0.541l-0.002 0.014c-0.037 0.16-0.058 0.344-0.058 0.533 0 0.012 0 0.024 0 0.036l-0-0.002c0.004 0.801 0.331 1.525 0.858 2.049l0 0c0.127 0.141 0.27 0.263 0.428 0.365l0.008 0.005c0.143 0.105 0.305 0.197 0.478 0.27l0.016 0.006c0.16 0.069 0.346 0.124 0.54 0.157l0.014 0.002c0.157 0.037 0.338 0.058 0.524 0.058 0.015 0 0.031-0 0.046-0l-0.002 0c0.085 0.010 0.184 0.016 0.284 0.016s0.199-0.006 0.296-0.018l-0.012 0.001c0.203-0.035 0.383-0.090 0.553-0.165l-0.015 0.006c0.194-0.078 0.362-0.17 0.516-0.281l-0.007 0.005c0.166-0.107 0.309-0.229 0.435-0.368l0.002-0.002c0.141-0.127 0.263-0.27 0.365-0.428l0.005-0.008c0.105-0.143 0.198-0.305 0.27-0.478l0.006-0.015c0.093-0.176 0.168-0.38 0.215-0.594l0.003-0.016c0.006-0.062 0.009-0.133 0.009-0.206 0-0.132-0.011-0.261-0.031-0.387l0.002 0.014z"></path>
<path fill="#fff" style="fill: var(--color3, #fff)" d="M43.629 13.084h-31.983c-1.606 0-2.907 1.302-2.907 2.907s1.302 2.907 2.907 2.907h31.983c1.606 0 2.907-1.302 2.907-2.907s-1.302-2.907-2.907-2.907v0z"></path>
<path fill="#fff" style="fill: var(--color3, #fff)" d="M30.545 26.167h-18.899c-1.606 0-2.907 1.302-2.907 2.907s1.302 2.907 2.907 2.907h18.899c1.606 0 2.907-1.302 2.907-2.907s-1.302-2.907-2.907-2.907v0z"></path>
</symbol>

<symbol id="icon-menu" viewBox="0 0 32 32">
<path fill="#fff" style="fill: var(--color3, #fff); stroke: var(--color3, #fff)" stroke="#fff" stroke-linejoin="miter" stroke-linecap="butt" stroke-miterlimit="4" stroke-width="1.6579" d="M10.733 0.829h-6.588c-1.831 0-3.316 1.485-3.316 3.316v0 6.588c0 1.831 1.485 3.316 3.316 3.316v0h6.588c1.831 0 3.316-1.485 3.316-3.316v0-6.588c0-1.831-1.485-3.316-3.316-3.316v0zM11.809 10.733c-0.001 0.594-0.482 1.075-1.076 1.076h-6.588c-0.594-0.001-1.075-0.482-1.076-1.076v-6.588c0.002-0.593 0.483-1.073 1.076-1.074h6.588c0 0 0 0 0 0 0.594 0 1.076 0.481 1.078 1.074v0z"></path>
<path fill="#fff" style="fill: var(--color3, #fff); stroke: var(--color3, #fff)" stroke="#fff" stroke-linejoin="miter" stroke-linecap="butt" stroke-miterlimit="4" stroke-width="1.6579" d="M27.811 0.829h-6.499c-1.856 0.002-3.36 1.506-3.362 3.362v6.499c0.002 1.856 1.506 3.36 3.362 3.362h6.499c1.856-0.002 3.36-1.506 3.362-3.362v-6.499c-0.002-1.856-1.506-3.36-3.362-3.362h-0zM28.931 10.69c-0.001 0.619-0.502 1.12-1.121 1.121h-6.499c-0.619-0.001-1.12-0.502-1.121-1.121v-6.499c0.001-0.619 0.502-1.12 1.121-1.121h6.499c0.619 0.001 1.12 0.502 1.121 1.121v0z"></path>
<path fill="#fff" style="fill: var(--color3, #fff); stroke: var(--color3, #fff)" stroke="#fff" stroke-linejoin="miter" stroke-linecap="butt" stroke-miterlimit="4" stroke-width="1.6579" d="M10.733 17.95h-6.588c-1.831 0-3.316 1.485-3.316 3.316v0 6.588c0 1.831 1.485 3.316 3.316 3.316v0h6.588c1.831 0 3.316-1.485 3.316-3.316v0-6.588c0-1.831-1.485-3.316-3.316-3.316v0zM11.809 27.855c-0.001 0.594-0.482 1.075-1.076 1.076h-6.588c-0.594-0.001-1.075-0.482-1.076-1.076v-6.59c0.002-0.593 0.483-1.073 1.076-1.074h6.588c0.594 0.001 1.075 0.482 1.076 1.076v0z"></path>
<path fill="#fff" style="fill: var(--color3, #fff); stroke: var(--color3, #fff)" stroke="#fff" stroke-linejoin="miter" stroke-linecap="butt" stroke-miterlimit="4" stroke-width="1.6579" d="M27.811 17.95h-6.499c-1.856 0.002-3.36 1.506-3.362 3.362v6.499c0.002 1.856 1.506 3.36 3.362 3.362h6.499c1.856-0.002 3.36-1.506 3.362-3.362v-6.499c-0.002-1.856-1.506-3.36-3.362-3.362h-0zM28.931 27.811c-0.001 0.619-0.502 1.12-1.121 1.121h-6.499c-0.619-0.001-1.12-0.502-1.121-1.121v-6.499c0.001-0.619 0.502-1.12 1.121-1.121h6.499c0.619 0.001 1.12 0.502 1.121 1.121v0z"></path>
</symbol>

<symbol id="icon-save-star" viewBox="0 0 26 32">
<path d="M25.038 0h-24.101c-0.518 0-0.937 0.42-0.937 0.937v30.125c0 0 0 0 0 0.001 0 0.518 0.42 0.937 0.937 0.937 0.153 0 0.298-0.037 0.425-0.102l-0.005 0.002 11.631-5.81 11.631 5.81c0.122 0.063 0.267 0.099 0.42 0.099 0.518 0 0.937-0.42 0.937-0.937 0-0 0-0 0-0.001v0-30.125c0-0.518-0.42-0.937-0.937-0.937-0 0-0.001 0-0.001 0h0zM19.666 12.011l-2.659 2.593 0.619 3.61c0.015 0.063 0.023 0.134 0.023 0.208 0 0.517-0.418 0.937-0.935 0.938h-0c-0.161-0-0.312-0.041-0.443-0.112l0.005 0.002-3.289-1.728-3.289 1.728c-0.127 0.068-0.277 0.108-0.436 0.108-0.518 0-0.937-0.42-0.937-0.937 0-0.055 0.005-0.11 0.014-0.163l-0.001 0.006 0.628-3.66-2.659-2.593c-0.174-0.17-0.282-0.407-0.282-0.67 0-0.47 0.346-0.859 0.797-0.927l0.005-0.001 3.676-0.534 1.644-3.33c0.156-0.312 0.474-0.523 0.841-0.523s0.684 0.211 0.838 0.518l0.002 0.005 1.644 3.33 3.676 0.534c0.457 0.068 0.803 0.457 0.803 0.928 0 0.263-0.109 0.501-0.283 0.672l-0 0z"></path>
</symbol>

<symbol id="icon-plans" viewBox="0 0 31 32">
<path stroke-linejoin="miter" stroke-linecap="butt" stroke-miterlimit="4" stroke-width="0.4776" d="M30.047 0.236h-20.559c-0.567 0-1.027 0.46-1.027 1.027v0 21.254c0 0.567 0.46 1.027 1.027 1.027v0h20.559c0.567 0 1.027-0.46 1.027-1.027v0-21.251c0-0.001 0-0.002 0-0.002 0-0.567-0.46-1.027-1.027-1.027 0 0 0 0 0 0v0zM29.020 8.461h-3.083c-0.568 0-1.028 0.46-1.028 1.028s0.46 1.028 1.028 1.028v0h3.083v10.973h-13.020v-3.090c0-0.568-0.46-1.028-1.028-1.028s-1.028 0.46-1.028 1.028v0 3.090h-3.427v-19.195h3.427v11.315c0 0.568 0.46 1.028 1.028 1.028s1.028-0.46 1.028-1.028v0-3.093h5.139c0.568 0 1.028-0.46 1.028-1.028s-0.46-1.028-1.028-1.028v0h-5.139v-6.166h13.020v6.168z"></path>
<path stroke-linejoin="miter" stroke-linecap="butt" stroke-miterlimit="4" stroke-width="0.4776" d="M30.775 27.952l-2.056-2.056c-0.186-0.186-0.443-0.301-0.727-0.301-0.568 0-1.028 0.46-1.028 1.028 0 0.284 0.115 0.541 0.301 0.727v0l0.301 0.301h-19.706l0.301-0.301c0.186-0.186 0.301-0.443 0.301-0.727 0-0.568-0.46-1.028-1.028-1.028-0.284 0-0.541 0.115-0.727 0.301v0l-2.056 2.056c-0.186 0.186-0.301 0.443-0.301 0.727s0.115 0.541 0.301 0.727v0l2.056 2.056c0.186 0.186 0.443 0.301 0.727 0.301 0.568 0 1.028-0.46 1.028-1.028 0-0.284-0.115-0.541-0.301-0.727v0l-0.301-0.301h19.706l-0.301 0.301c-0.186 0.186-0.301 0.443-0.301 0.727 0 0.568 0.46 1.028 1.028 1.028 0.284 0 0.541-0.115 0.727-0.301v0l2.056-2.056c0.186-0.186 0.301-0.443 0.301-0.727s-0.115-0.541-0.301-0.727v0z"></path>
<path stroke-linejoin="miter" stroke-linecap="butt" stroke-miterlimit="4" stroke-width="0.4776" d="M4.652 21.784l-0.301 0.301v-18.336l0.301 0.301c0.186 0.186 0.443 0.3 0.726 0.3 0.567 0 1.028-0.46 1.028-1.028 0-0.284-0.115-0.541-0.302-0.727v0l-2.056-2.056c-0.186-0.186-0.443-0.302-0.727-0.302s-0.541 0.115-0.727 0.302l-0 0-2.054 2.056c-0.189 0.187-0.305 0.446-0.305 0.732 0 0.569 0.461 1.030 1.030 1.030 0.283 0 0.539-0.114 0.725-0.298l0.301-0.301v18.326l-0.301-0.301c-0.186-0.186-0.443-0.301-0.727-0.301-0.568 0-1.028 0.46-1.028 1.028 0 0.284 0.115 0.541 0.301 0.727l2.056 2.056c0.186 0.186 0.443 0.302 0.727 0.302s0.541-0.115 0.727-0.302l2.056-2.056c0.186-0.186 0.301-0.443 0.301-0.727 0-0.568-0.46-1.028-1.028-1.028-0.284 0-0.541 0.115-0.727 0.301v0z"></path>
</symbol>

<symbol id="icon-arrow-left" viewBox="0 0 47 32">
<path d="M0.634 14.473l13.833-13.838c0.392-0.392 0.933-0.634 1.53-0.634 1.195 0 2.164 0.969 2.164 2.164 0 0.598-0.242 1.139-0.634 1.53l-10.144 10.144h36.955c1.194 0 2.162 0.968 2.162 2.162s-0.968 2.162-2.162 2.162v0h-36.955l10.144 10.149c0.392 0.392 0.634 0.933 0.634 1.53 0 1.195-0.969 2.164-2.164 2.164-0.598 0-1.139-0.242-1.53-0.634l-13.833-13.841c-0.391-0.391-0.633-0.932-0.633-1.529s0.242-1.138 0.633-1.529v0z"></path>
</symbol>

<symbol id="icon-blueprint" viewBox="0 0 32 32">
<path d="M29.337 6.242h-2.568v4.108h-2.039v-1.027h1.685l-1.797-7.189h-3.996v-0.513c-0.001-0.851-0.69-1.54-1.541-1.541h-2.054c-0.851 0.001-1.54 0.69-1.541 1.541v0.514h-1.026v-0.514c-0.001-0.851-0.69-1.54-1.541-1.541h-2.054c-0.851 0.001-1.54 0.69-1.541 1.541v0.514h-1.942l-1.796 7.189h2.713v1.027h-3.084v-4.108h-2.567c-1.418 0.001-2.567 1.15-2.568 2.568v21.055h0.052c0.248 1.18 1.28 2.054 2.516 2.056h26.689c1.236-0.002 2.267-0.875 2.513-2.037l0.003-0.017h0.052v-21.057c-0.001-1.418-1.15-2.567-2.568-2.568h-0zM23.701 18.568h-6.161v-9.244h6.161zM14.458 18.568h-3.080v0.909h3.081zM10.35 18.568h-1.026v0.817h7.189v-0.817h-6.162zM9.323 8.299h7.189v10.49h-1.824v-8.863h-3.539v8.863h-1.826zM10.35 7.272l2.568-1.926 2.568 1.926zM13.661 18.792h-1.484v-7.838h1.485zM16.514 1.621c0-0.284 0.23-0.514 0.514-0.514v0h2.053c0.284 0 0.514 0.23 0.514 0.514v0 0.514h-3.081zM10.351 1.621c0-0.284 0.23-0.514 0.514-0.514h2.054c0.284 0 0.514 0.23 0.514 0.514v0 0.514h-3.082zM6.901 8.299l1.284-5.135h15.631l1.284 5.135h-7.559v-0.77l-4.622-3.47-4.619 3.467v0.773zM1.107 8.813c0.001-0.851 0.69-1.54 1.541-1.541h1.54v19.512h-1.54c-0.001 0-0.002 0-0.003 0-0.58 0-1.115 0.193-1.544 0.519l0.006-0.005zM29.337 30.893h-26.689c-0.010 0-0.023 0-0.035 0-0.851 0-1.541-0.69-1.541-1.541s0.69-1.541 1.541-1.541c0.012 0 0.025 0 0.037 0l-0.002-0h2.567v-16.434h3.084v7.189h-1.030v1.027h18.488v-1.027h-1.027v-7.189h2.039v16.433h2.568c0.836 0.020 1.506 0.702 1.506 1.541s-0.67 1.521-1.504 1.541l-0.002 0zM30.878 27.302c-0.422-0.321-0.957-0.515-1.538-0.515-0.001 0-0.002 0-0.004 0h-1.541v-19.518h1.541c0.851 0.001 1.54 0.69 1.541 1.541v0z"></path>
<path d="M22.361 10.892h-3.479v5.985h3.479zM21.492 16.011h-1.74v-4.249h1.74z"></path>
<path d="M16.514 29.866h8.179v-8.179h-8.179zM17.422 22.596h6.361v6.361h-6.361z"></path>
<path d="M7.251 26.46h1.027v1.027h-1.027z"></path>
<path d="M7.251 21.687h1.027v1.027h-1.027z"></path>
<path d="M9.053 26.46h1.027v1.027h-1.027z"></path>
<path d="M9.053 21.687h1.027v1.027h-1.027z"></path>
<path d="M10.824 26.46h4.663v1.027h-4.663z"></path>
<path d="M10.824 21.687h4.663v1.027h-4.663z"></path>
<path d="M12.657 28.725h1.027v1.027h-1.027z"></path>
<path d="M12.657 24.076h1.027v1.027h-1.027z"></path>
<path d="M14.459 28.725h1.027v1.027h-1.027z"></path>
<path d="M14.459 24.076h1.027v1.027h-1.027z"></path>
<path d="M7.251 28.725h4.691v1.027h-4.691z"></path>
<path d="M7.251 24.076h4.691v1.027h-4.691z"></path>
</symbol>

<symbol id="icon-buildings" viewBox="0 0 32 32">
<path d="M20.645 25.807h1.033v4.131h-1.033z"></path>
<path d="M22.71 25.807h1.033v4.131h-1.033z"></path>
<path d="M27.871 18.059v-10.833h-1.033v-5.255l-1.033 0.172v-1.11h-1.033v1.283l-1.033 0.172v-2.488h-1.033v2.659l-1.033 0.172v-1.799h-1.033v1.97l-1.033 0.172v4.051h-1.033v5.164h-4.131v-7.226h-2.066v-3.098h-1.033v-2.066h-5.164v2.066h-1.018v3.098h-2.066v9.641c-1.074 0.52-1.842 1.526-2.021 2.724l-0.002 0.020h-1.075v14.452h32v-14.532zM20.645 4.050l5.164-0.86v4.036h-5.164zM19.612 8.255h7.226v9.952l-3.098 0.443v2.685l-1.549-2.066-1.549 2.066v-8.947h-1.033zM19.612 14.452h-7.225v-1.033h7.226zM19.612 24.775h5.164v6.197h-5.164zM20.129 23.742l2.066-2.752 2.066 2.752zM7.226 1.033h3.098v1.033h-3.098zM6.197 3.098h5.164v2.066h-5.164zM4.131 6.197h9.288v6.197h-2.066v2.418c-0.453-0.222-0.986-0.353-1.549-0.353h-5.164c-0.184 0.002-0.362 0.017-0.537 0.044l0.020-0.003zM4.648 15.487h5.164c1.242 0.001 2.28 0.879 2.525 2.049l0.003 0.017h-10.223c0.247-1.188 1.286-2.069 2.53-2.069 0 0 0 0 0.001 0h-0zM13.422 18.585v1.033h-12.389v-1.033zM11.356 27.875h-2.066v-2.066h2.066zM8.258 27.875h-2.061v-2.066h2.066zM8.258 28.908v2.066h-2.061v-2.066zM9.291 28.908h2.066v2.066h-2.066zM11.356 24.777h-2.066v-2.066h2.066zM8.258 24.777h-2.061v-2.066h2.066zM5.16 24.777h-2.061v-2.066h2.066zM3.094 25.81h2.070v2.066h-2.066zM3.094 28.908h2.070v2.066h-2.066zM12.384 30.974v-9.296h-10.318v9.29h-1.033v-10.323h12.386v10.323zM13.375 17.555c-0.116-0.788-0.472-1.478-0.991-2.008l0.001 0.001v-0.058h7.226v7.226l-1.033 1.377v6.881h-4.131v-13.426zM30.964 30.974h-5.164v-6.887l-1.033-1.377v-3.166l6.197-0.885z"></path>
<path d="M15.484 16.516h1.033v1.033h-1.033z"></path>
<path d="M15.484 28.903h1.033v1.033h-1.033z"></path>
<path d="M15.484 18.581h1.033v1.033h-1.033z"></path>
<path d="M15.484 26.839h1.033v1.033h-1.033z"></path>
<path d="M15.484 22.71h1.033v1.033h-1.033z"></path>
<path d="M15.484 20.645h1.033v1.033h-1.033z"></path>
<path d="M15.484 24.774h1.033v1.033h-1.033z"></path>
<path d="M17.548 20.645h1.033v1.033h-1.033z"></path>
<path d="M17.548 18.581h1.033v1.033h-1.033z"></path>
<path d="M17.548 16.516h1.033v1.033h-1.033z"></path>
<path d="M28.903 28.903h1.033v1.033h-1.033z"></path>
<path d="M28.903 24.774h1.033v1.033h-1.033z"></path>
<path d="M28.903 26.839h1.033v1.033h-1.033z"></path>
<path d="M28.903 22.71h1.033v1.033h-1.033z"></path>
<path d="M28.903 20.645h1.033v1.033h-1.033z"></path>
<path d="M26.839 26.839h1.033v1.033h-1.033z"></path>
<path d="M26.839 20.645h1.033v1.033h-1.033z"></path>
<path d="M26.839 24.774h1.033v1.033h-1.033z"></path>
<path d="M26.839 28.903h1.033v1.033h-1.033z"></path>
<path d="M26.839 22.71h1.033v1.033h-1.033z"></path>
<path d="M11.355 7.226h1.033v1.033h-1.033z"></path>
<path d="M9.29 7.226h1.033v1.033h-1.033z"></path>
<path d="M5.161 7.226h1.033v1.033h-1.033z"></path>
<path d="M7.226 7.226h1.033v1.033h-1.033z"></path>
<path d="M7.226 9.29h1.033v1.033h-1.033z"></path>
<path d="M11.355 9.29h1.033v1.033h-1.033z"></path>
<path d="M5.161 9.29h1.033v1.033h-1.033z"></path>
<path d="M9.29 9.29h1.033v1.033h-1.033z"></path>
<path d="M5.161 11.355h1.033v1.033h-1.033z"></path>
<path d="M7.226 11.355h1.033v1.033h-1.033z"></path>
<path d="M9.29 11.355h1.033v1.033h-1.033z"></path>
<path d="M24.774 9.29h1.033v1.033h-1.033z"></path>
<path d="M22.71 9.29h1.033v1.033h-1.033z"></path>
<path d="M20.645 9.29h1.033v1.033h-1.033z"></path>
<path d="M24.774 11.355h1.033v1.033h-1.033z"></path>
<path d="M20.645 11.355h1.033v1.033h-1.033z"></path>
<path d="M22.71 11.355h1.033v1.033h-1.033z"></path>
<path d="M22.71 17.548h1.033v1.033h-1.033z"></path>
<path d="M22.71 15.484h1.033v1.033h-1.033z"></path>
<path d="M22.71 13.419h1.033v1.033h-1.033z"></path>
<path d="M24.774 15.484h1.033v1.033h-1.033z"></path>
<path d="M24.774 13.419h1.033v1.033h-1.033z"></path>
</symbol>

<symbol id="icon-city" viewBox="0 0 32 32">
<path d="M29.932 28.841c1.213-0.41 2.070-1.537 2.070-2.865 0-0.060-0.002-0.119-0.005-0.178l0 0.008c0.003-0.051 0.005-0.11 0.005-0.169 0-1.328-0.858-2.455-2.049-2.859l-0.021-0.006v-16.576h-1.033v-2.066h-2.066v-2.060h-1.043l0.013-2.066-1.033-0.007-0.013 2.066h-1.020v2.066h-2.066v2.066h-1.033v4.479c-1.181 0.324-2.213 0.823-3.128 1.476l0.030-0.020v-4.901h2.066v-3.098h-2.582v-2.060h-1.040l0.013-2.066-1.033-0.007-0.012 2.072h-1.020v2.066h-2.582v3.098h2.066v9.912l-2.066-0.516v-4.242h1.033v-1.033h-3.098v-3.098h-1.033v3.098h-1.033v-1.033h-1.033v1.033h-1.024v-2.066h-1.033v2.066h-3.098v1.033h1.033v16.008c-0.629 0.462-1.032 1.199-1.032 2.031 0 0.19 0.021 0.375 0.061 0.553l-0.003-0.017h-1.091v1.033h31.996v-1.033h-2.066zM14.45 28.094c-0.305-0.134-0.66-0.213-1.034-0.213-0.473 0-0.918 0.126-1.301 0.346l0.013-0.007c-0.666-0.844-1.689-1.38-2.837-1.38-0.774 0-1.49 0.244-2.078 0.658l0.011-0.008v-10.828l7.225 1.806zM14.838 17.502l0.058-0.143c1.138-3.357 4.167-5.771 7.787-5.986l0.024-0.001v17.89c-0.455-0.226-0.991-0.358-1.557-0.358-0.117 0-0.233 0.006-0.347 0.017l0.015-0.001c-0.587-1.239-1.827-2.081-3.264-2.081-0.776 0-1.495 0.246-2.083 0.663l0.011-0.008v-9.832zM24.772 25.808v1.936c-0.625-0.374-1.036-1.046-1.036-1.816 0-0.043 0.001-0.085 0.004-0.128l-0 0.006c0-1.138 0.695-2.066 1.549-2.066s1.549 0.926 1.549 2.066c0.002 0.036 0.004 0.079 0.004 0.122 0 0.769-0.412 1.442-1.027 1.81l-0.010 0.005v-1.936zM23.739 30.006v-1.728c0.282 0.262 0.63 0.458 1.016 0.559l0.017 0.004v2.128h-0.361c-0.179-0.371-0.404-0.689-0.673-0.964l0.001 0.001zM25.805 28.842c0.663-0.184 1.206-0.607 1.543-1.169l0.007-0.012c0.343 0.573 0.886 0.997 1.531 1.176l0.018 0.004v2.127h-3.098zM30.969 25.808c0.002 0.036 0.004 0.079 0.004 0.122 0 0.769-0.412 1.442-1.027 1.81l-0.010 0.005v-1.937h-1.033v1.936c-0.625-0.374-1.036-1.046-1.036-1.816 0-0.043 0.001-0.085 0.004-0.128l-0 0.006c0-1.138 0.695-2.066 1.549-2.066s1.545 0.928 1.545 2.067zM24.772 3.104h1.033v1.033h-1.033zM22.706 5.169h5.164v1.033h-5.164zM21.673 7.235h7.225v15.539c-0.663 0.184-1.206 0.607-1.543 1.169l-0.007 0.012c-0.42-0.728-1.182-1.217-2.062-1.246l-0.004-0c-0.601 0.008-1.145 0.244-1.55 0.626l0.001-0.001v-13.007h-0.516c-0 0-0 0-0.001 0-0.547 0-1.083 0.045-1.606 0.13l0.057-0.008zM14.966 3.104h1.033v1.033h-1.033zM12.384 5.169h6.193v1.033h-6.192zM16.515 7.235v5.748c-0.832 0.78-1.524 1.698-2.040 2.719l-0.025 0.056v-8.529zM3.098 12.399h7.225v3.984l-4.131-1.033v13.251c-0.056 0.089-0.117 0.196-0.172 0.307l-0.010 0.022c-0.099-0.015-0.215-0.023-0.332-0.024h-0.001c-0.476-0.631-1.224-1.034-2.066-1.034-0.183 0-0.361 0.019-0.532 0.055l0.017-0.003zM2.066 30.452c0.002-0.854 0.695-1.547 1.549-1.547 0.575 0 1.077 0.314 1.345 0.779l0.004 0.008 0.16 0.283 0.555-0.039c0.176 0.003 0.344 0.036 0.5 0.093l-0.011-0.003 0.501 0.168 0.156-0.505c0.339-1.058 1.314-1.81 2.464-1.81 0.966 0 1.808 0.53 2.251 1.316l0.007 0.013 0.322 0.584 0.484-0.46c0.279-0.256 0.652-0.413 1.062-0.413s0.783 0.157 1.063 0.414l-0.001-0.001 0.484 0.46 0.322-0.584c0.449-0.8 1.292-1.332 2.259-1.332 1.139 0 2.106 0.738 2.449 1.761l0.005 0.018 0.148 0.443 0.458-0.101c0.166-0.038 0.356-0.060 0.551-0.060 0.839 0 1.584 0.401 2.054 1.023l0.005 0.006h-21.047c-0.060-0.153-0.096-0.33-0.1-0.515l-0-0.002z"></path>
<path d="M8.257 13.421h1.033v1.033h-1.033z"></path>
<path d="M4.128 13.421h1.033v1.033h-1.033z"></path>
<path d="M6.193 13.421h1.033v1.033h-1.033z"></path>
<path d="M4.128 21.679h1.033v1.033h-1.033z"></path>
<path d="M4.128 19.614h1.033v1.033h-1.033z"></path>
<path d="M4.128 17.55h1.033v1.033h-1.033z"></path>
<path d="M4.128 23.743h1.033v1.033h-1.033z"></path>
<path d="M4.128 15.485h1.033v1.033h-1.033z"></path>
<path d="M4.128 25.808h1.033v1.033h-1.033z"></path>
<path d="M26.836 8.261h1.033v1.033h-1.033z"></path>
<path d="M24.772 8.261h1.033v1.033h-1.033z"></path>
<path d="M22.707 8.261h1.033v1.033h-1.033z"></path>
<path d="M8.257 24.775h1.033v1.033h-1.033z"></path>
<path d="M8.257 22.711h1.033v1.033h-1.033z"></path>
<path d="M8.257 20.647h1.033v1.033h-1.033z"></path>
<path d="M8.257 18.582h1.033v1.033h-1.033z"></path>
<path d="M10.321 18.582h1.033v1.033h-1.033z"></path>
<path d="M10.321 20.647h1.033v1.033h-1.033z"></path>
<path d="M10.321 24.775h1.033v1.033h-1.033z"></path>
<path d="M10.321 22.711h1.033v1.033h-1.033z"></path>
<path d="M12.386 24.775h1.033v1.033h-1.033z"></path>
<path d="M12.386 20.647h1.033v1.033h-1.033z"></path>
<path d="M12.386 18.582h1.033v1.033h-1.033z"></path>
<path d="M12.386 22.711h1.033v1.033h-1.033z"></path>
<path d="M18.579 24.775h1.033v1.033h-1.033z"></path>
<path d="M16.515 24.775h1.033v1.033h-1.033z"></path>
<path d="M20.643 24.775h1.033v1.033h-1.033z"></path>
<path d="M18.579 22.711h1.033v1.033h-1.033z"></path>
<path d="M16.515 22.711h1.033v1.033h-1.033z"></path>
<path d="M20.643 22.711h1.033v1.033h-1.033z"></path>
<path d="M20.643 20.647h1.033v1.033h-1.033z"></path>
<path d="M16.515 20.647h1.033v1.033h-1.033z"></path>
<path d="M18.579 20.647h1.033v1.033h-1.033z"></path>
<path d="M16.515 18.582h1.033v1.033h-1.033z"></path>
<path d="M20.643 18.582h1.033v1.033h-1.033z"></path>
<path d="M18.579 18.582h1.033v1.033h-1.033z"></path>
<path d="M20.643 16.518h1.033v1.033h-1.033z"></path>
<path d="M18.579 16.518h1.033v1.033h-1.033z"></path>
<path d="M16.515 16.518h1.033v1.033h-1.033z"></path>
<path d="M18.579 14.453h1.033v1.033h-1.033z"></path>
<path d="M20.643 14.453h1.033v1.033h-1.033z"></path>
<path d="M24.772 10.325h1.033v1.033h-1.033z"></path>
<path d="M26.836 10.325h1.033v1.033h-1.033z"></path>
<path d="M26.836 12.389h1.033v1.033h-1.033z"></path>
<path d="M24.772 12.389h1.033v1.033h-1.033z"></path>
<path d="M24.772 14.453h1.033v1.033h-1.033z"></path>
<path d="M26.836 14.453h1.033v1.033h-1.033z"></path>
<path d="M26.836 16.518h1.033v1.033h-1.033z"></path>
<path d="M24.772 16.518h1.033v1.033h-1.033z"></path>
<path d="M24.772 18.582h1.033v1.033h-1.033z"></path>
<path d="M26.836 18.582h1.033v1.033h-1.033z"></path>
<path d="M26.836 20.647h1.033v1.033h-1.033z"></path>
<path d="M24.772 20.647h1.033v1.033h-1.033z"></path>
</symbol>

<symbol id="icon-contract" viewBox="0 0 49 32">
<path d="M48.748 14.341l-0.020-0.020-7.913-13.362c-0.26-0.442-0.68-0.765-1.179-0.894l-0.013-0.003c-0.148-0.040-0.319-0.063-0.494-0.063-0.366 0-0.709 0.1-1.003 0.275l0.009-0.005-1.931 1.143c-1.051 0.629-1.743 1.761-1.743 3.054 0 0.395 0.065 0.774 0.184 1.129l-0.007-0.025 0.030 0.089-0.089 0.039c-0.299 0.113-0.645 0.178-1.006 0.178-0.39 0-0.762-0.076-1.103-0.214l0.020 0.007c-0.472-0.15-0.857-0.301-1.231-0.471l0.068 0.028c-0.68-0.389-1.494-0.619-2.362-0.619-0.357 0-0.705 0.039-1.040 0.113l0.032-0.006c-1.143 0.296-1.862 0.473-2.345 0.591-0.897 0.227-0.907 0.237-1.094 0.296l-0.039 0.020-0.039-0.030c-1.872-1.064-2.986-1.389-4.986-0.611l-1.793 0.69c-0.322 0.13-0.694 0.205-1.085 0.205-0.564 0-1.091-0.157-1.54-0.429l0.013 0.007-0.552-0.325 0.010-0.059c0.031-0.176 0.048-0.379 0.048-0.586 0-1.298-0.692-2.435-1.727-3.061l-0.016-0.009-1.931-1.143c-0.283-0.168-0.624-0.267-0.988-0.267-0.712 0-1.335 0.38-1.678 0.948l-0.005 0.009-7.933 13.392c-0.172 0.285-0.274 0.629-0.274 0.997 0 0.701 0.37 1.316 0.926 1.659l0.008 0.005 0.020 0.010 1.931 1.143c0.518 0.314 1.144 0.5 1.813 0.503h0.001c0.003 0 0.006 0 0.009 0 0.72 0 1.389-0.217 1.945-0.589l-0.013 0.008 0.049-0.030 0.552 0.325-0.916 1.271c-0.351 0.491-0.561 1.103-0.561 1.765 0 1.013 0.493 1.911 1.252 2.467l0.009 0.006c0.491 0.356 1.105 0.57 1.769 0.57 0.169 0 0.334-0.014 0.495-0.040l-0.018 0.002 0.099-0.020 0.010 0.099c0.26 1.445 1.508 2.528 3.009 2.528 0.162 0 0.322-0.013 0.477-0.037l-0.017 0.002 0.099-0.020 0.010 0.099c0.252 1.444 1.496 2.527 2.993 2.527 0.182 0 0.36-0.016 0.533-0.047l-0.018 0.003c0.26-0.045 0.492-0.113 0.711-0.205l-0.021 0.008 0.099-0.039 0.030 0.089c0.454 1.148 1.554 1.946 2.841 1.946 0.392 0 0.767-0.074 1.111-0.209l-0.021 0.007c0.494-0.194 0.908-0.497 1.228-0.882l0.004-0.005 0.059-0.069 2.326 1.38c0.443 0.267 0.977 0.424 1.549 0.424 1.11 0 2.082-0.595 2.612-1.484l0.008-0.014c0.206-0.336 0.349-0.733 0.402-1.158l0.002-0.015 0.010-0.089h0.118l0.030 0.010c0.442 0.266 0.976 0.424 1.547 0.424 1.106 0 2.073-0.591 2.604-1.474l0.008-0.014c0.228-0.382 0.38-0.834 0.423-1.318l0.001-0.012 0.010-0.108 0.108 0.020c0.225 0.060 0.483 0.094 0.749 0.094 1.413 0 2.601-0.964 2.942-2.27l0.005-0.021c0.029-0.119 0.054-0.264 0.068-0.411l0.001-0.013 0.020-0.128 0.118 0.039c0.33 0.135 0.714 0.213 1.115 0.213 1.28 0 2.375-0.794 2.819-1.917l0.007-0.021c0.131-0.328 0.206-0.708 0.206-1.105 0-0.748-0.268-1.433-0.713-1.964l0.004 0.005-0.079-0.089 1.389-0.808 0.039 0.020c0.402 0.17 0.869 0.269 1.359 0.269 0.669 0 1.295-0.184 1.83-0.505l-0.016 0.009 1.931-1.143c0.579-0.348 0.96-0.973 0.96-1.687 0-0.366-0.1-0.709-0.275-1.003l0.005 0.009zM6.326 16.065c-0.337 0.556-0.938 0.923-1.625 0.926h-0c-0.353-0.001-0.683-0.1-0.964-0.271l0.008 0.005-1.931-1.143c-0.084-0.048-0.139-0.138-0.139-0.24 0-0.053 0.015-0.103 0.042-0.146l-0.001 0.001 7.932-13.392c0.054-0.080 0.144-0.133 0.247-0.133 0.050 0 0.098 0.013 0.139 0.035l-0.002-0.001 1.931 1.153c0.556 0.335 0.922 0.936 0.922 1.622 0 0.354-0.097 0.685-0.267 0.968l0.005-0.009zM9.913 22.224c-0.256 0.341-0.659 0.56-1.113 0.562h-0c-0.25-0.002-0.484-0.067-0.687-0.181l0.007 0.004v0.010l-0.118-0.089c-0.345-0.248-0.567-0.648-0.567-1.1 0-0.289 0.091-0.556 0.245-0.776l-0.003 0.004v-0.010c0.005-0.005 0.009-0.012 0.010-0.020l0-0 0.020-0.020 1.232-1.715c0.209-0.287 0.52-0.488 0.879-0.551l0.008-0.001c0.067-0.012 0.144-0.018 0.223-0.018 0.753 0 1.363 0.61 1.363 1.363 0 0.298-0.096 0.574-0.258 0.798l0.003-0.004zM13.48 24.786c-0.247 0.348-0.648 0.572-1.101 0.572-0.001 0-0.002 0-0.002 0h0c-0.287-0.001-0.553-0.089-0.773-0.24l0.005 0.003-0.030-0.020c-0.344-0.249-0.566-0.65-0.566-1.102 0-0.301 0.098-0.578 0.263-0.803l-0.003 0.004 2.621-3.656c0.207-0.288 0.519-0.49 0.879-0.551l0.008-0.001c0.067-0.011 0.145-0.018 0.225-0.020l0.002-0c0.751 0.002 1.36 0.611 1.36 1.363 0 0.002 0 0.005-0 0.007v-0c0 0.002 0 0.004 0 0.006 0 0.294-0.096 0.566-0.259 0.786l0.003-0.004zM17.067 27.358c-0.248 0.342-0.646 0.562-1.096 0.562-0.003 0-0.005 0-0.008-0h0c-0.006 0-0.013 0-0.021 0-0.293 0-0.563-0.096-0.781-0.259l0.003 0.002c-0.349-0.251-0.574-0.657-0.574-1.115 0-0.295 0.093-0.568 0.252-0.791l-0.003 0.004 2.631-3.656c0.251-0.348 0.656-0.573 1.113-0.573 0.677 0 1.239 0.491 1.349 1.136l0.001 0.008c0.011 0.066 0.018 0.143 0.018 0.22 0 0.303-0.099 0.582-0.267 0.808l0.003-0.004zM22.103 27.89l-0.877 1.222c-0.254 0.342-0.657 0.562-1.111 0.562-0.001 0-0.002 0-0.003 0h0c-0.295-0.001-0.568-0.093-0.793-0.249l0.005 0.003-0.039-0.039c-0.322-0.254-0.526-0.644-0.526-1.081 0-0.296 0.094-0.571 0.253-0.795l-0.003 0.004 0.877-1.212c0.25-0.347 0.653-0.57 1.109-0.57 0.753 0 1.363 0.61 1.363 1.363 0 0.298-0.095 0.573-0.257 0.797l0.003-0.004zM40.451 21.928c-0.247 0.399-0.681 0.661-1.177 0.661-0.256 0-0.496-0.070-0.701-0.191l0.006 0.003-8.287-4.907c-0.119-0.068-0.261-0.108-0.412-0.108-0.463 0-0.838 0.375-0.838 0.838 0 0.298 0.155 0.559 0.389 0.708l6.271 3.717c0.405 0.242 0.673 0.679 0.673 1.177 0 0.256-0.071 0.496-0.193 0.701l0.003-0.006c-0.242 0.406-0.678 0.673-1.177 0.673-0.257 0-0.497-0.071-0.702-0.194l0.006 0.003-6.267-3.715c-0.123-0.075-0.271-0.119-0.43-0.119-0.307 0-0.575 0.165-0.721 0.411l-0.002 0.004c-0.071 0.123-0.112 0.271-0.112 0.429 0 0.072 0.009 0.141 0.025 0.208l-0.001-0.006c0.059 0.219 0.197 0.399 0.381 0.51l0.004 0.002 4.622 2.739c0.307 0.184 0.531 0.479 0.619 0.828l0.002 0.009c0.026 0.1 0.041 0.214 0.041 0.332 0 0.754-0.611 1.366-1.366 1.366-0.256 0-0.496-0.071-0.701-0.194l0.006 0.003-4.287-2.532c-0.123-0.077-0.273-0.122-0.434-0.122-0.070 0-0.138 0.009-0.203 0.025l0.006-0.001c-0.219 0.059-0.399 0.197-0.51 0.381l-0.002 0.004c-0.075 0.123-0.119 0.271-0.119 0.43 0 0.307 0.165 0.575 0.411 0.721l0.004 0.002 1.803 1.064c0.308 0.185 0.535 0.479 0.628 0.828l0.002 0.010c0.028 0.102 0.044 0.22 0.044 0.341 0 0.256-0.071 0.496-0.195 0.7l0.003-0.006c-0.245 0.404-0.683 0.67-1.182 0.67h-0c-0.001 0-0.003 0-0.005 0-0.253 0-0.489-0.070-0.691-0.191l0.006 0.003-2.197-1.301 0.049-0.089c0.308-0.465 0.492-1.036 0.492-1.65 0-0.226-0.025-0.445-0.072-0.657l0.004 0.020c-0.274-1.212-1.236-2.141-2.445-2.362l-0.019-0.003-0.118-0.020 0.039-0.108c0.122-0.317 0.193-0.684 0.193-1.067 0-1.294-0.808-2.398-1.946-2.838l-0.021-0.007c-0.321-0.121-0.692-0.191-1.080-0.191-0.161 0-0.32 0.012-0.475 0.036l0.017-0.002-0.099 0.020-0.020-0.099c-0.25-1.439-1.489-2.52-2.981-2.52-0.186 0-0.369 0.017-0.546 0.049l0.018-0.003c-0.648 0.114-1.211 0.417-1.646 0.848l0-0-0.089 0.099-0.069-0.118c-0.534-0.92-1.515-1.529-2.638-1.529-0.552 0-1.069 0.147-1.515 0.404l0.015-0.008-0.128 0.079-0.059-0.030-0.512-0.296 0.049-0.089 5.942-10.022 0.365 0.217c0.676 0.412 1.495 0.656 2.37 0.656 0.608 0 1.189-0.118 1.721-0.332l-0.031 0.011 1.803-0.7c0.374-0.195 0.817-0.31 1.287-0.31 0.52 0 1.008 0.141 1.427 0.386l-0.013-0.007 0.099 0.059-0.079 0.089c-0.642 0.72-1.035 1.674-1.035 2.721 0 0.003 0 0.006 0 0.009v-0.001 4.149c0.004 1.049 0.853 1.897 1.901 1.902h0c1.764-0.004 3.263-1.135 3.815-2.711l0.009-0.028 0.039-0.108 12.456 7.371c0.405 0.242 0.673 0.679 0.673 1.177 0 0.256-0.071 0.496-0.193 0.701l0.003-0.006zM47.221 15.572l-0.148 0.099-0.010-0.010-1.784 1.064c-0.274 0.163-0.604 0.259-0.956 0.259-0.686 0-1.288-0.365-1.621-0.911l-0.005-0.008-2.956-4.986c-0.147-0.256-0.418-0.425-0.729-0.425-0.463 0-0.838 0.375-0.838 0.838 0 0.165 0.048 0.319 0.13 0.448l-0.002-0.003 2.946 4.976c0.059 0.099 0.108 0.168 0.168 0.256l0.059 0.079-0.079 0.069-0.818 0.483c-0.182 0.105-0.336 0.21-0.483 0.323l0.010-0.008-0.049 0.039-0.059-0.030-12.722-7.538c-0.123-0.071-0.271-0.112-0.429-0.112-0.072 0-0.141 0.009-0.208 0.025l0.006-0.001c-0.221 0.059-0.402 0.201-0.51 0.39l-0.002 0.004c-0.074 0.12-0.118 0.265-0.118 0.421 0 0.001 0 0.002 0 0.003v-0c0.002 0.037 0.003 0.079 0.003 0.122 0 0.668-0.264 1.275-0.694 1.721l0.001-0.001c-0.426 0.426-1.015 0.69-1.665 0.69h-0.010c-0.001 0-0.003 0-0.004 0-0.123 0-0.223-0.1-0.223-0.223 0-0.001 0-0.003 0-0.004v0-4.149c0.002-1.127 0.773-2.073 1.816-2.342l0.017-0.004 3.104-0.788c0.182-0.037 0.39-0.058 0.604-0.058 0.598 0 1.158 0.164 1.638 0.45l-0.015-0.008c0.365 0.158 0.778 0.325 1.291 0.503 0.499 0.202 1.077 0.318 1.682 0.318 0.66 0 1.288-0.139 1.855-0.389l-0.029 0.012 0.079-0.030 0.611 1.025c0.146 0.249 0.412 0.414 0.717 0.414 0.157 0 0.305-0.044 0.43-0.12l-0.004 0.002c0.247-0.148 0.41-0.415 0.41-0.72 0-0.156-0.043-0.302-0.117-0.427l0.002 0.004-1.114-1.882c-0.166-0.275-0.264-0.607-0.264-0.962 0-0.686 0.367-1.287 0.916-1.615l0.009-0.005 0.020-0.020 1.912-1.123c0.041-0.026 0.091-0.041 0.145-0.041 0.090 0 0.169 0.043 0.219 0.11l0.001 0.001 0.030 0.049 7.923 13.372c0.025 0.038 0.040 0.085 0.040 0.135 0 0.026-0.004 0.050-0.011 0.073l0-0.002c-0.015 0.072-0.058 0.131-0.117 0.167l-0.001 0.001z"></path>
</symbol>

<symbol id="icon-arrow-down-sign-to-navigate" viewBox="0 0 56 32">
<path fill="#3259fc" style="fill: var(--color1, #3259fc)" d="M28.066 32c-0.008 0-0.016 0-0.025 0-1.082 0-2.062-0.439-2.771-1.148l-24.122-24.143c-0.666-0.703-1.075-1.655-1.075-2.702 0-2.172 1.761-3.934 3.934-3.934 1.047 0 1.999 0.409 2.704 1.077l-0.002-0.002 21.358 21.358 21.358-21.358c0.703-0.666 1.655-1.075 2.702-1.075 2.172 0 3.934 1.761 3.934 3.934 0 1.047-0.409 1.999-1.077 2.704l0.002-0.002-24.138 24.143c-0.709 0.709-1.689 1.148-2.771 1.148-0.003 0-0.007 0-0.010 0h0.001z"></path>
</symbol>

<symbol id="icon-tl" viewBox="0 0 29 32">
<path  style="fill: var(--color1, #fff)" d="M28.801 17.601c0 11.521-16.522 14.26-17.225 14.373-0.112 0.018-0.241 0.029-0.373 0.029-0.001 0-0.002 0-0.003 0h0c-1.325-0.002-2.399-1.076-2.401-2.401v-8.776l-5.496 2.204c-0.264 0.107-0.57 0.17-0.891 0.171h-0c-1.324-0.003-2.396-1.077-2.396-2.401 0-1.003 0.615-1.862 1.489-2.221l0.016-0.006 7.289-2.916v-2.832l-5.496 2.204c-0.263 0.11-0.568 0.174-0.888 0.174-0.001 0-0.002 0-0.003 0h0c-1.324-0.003-2.396-1.077-2.396-2.401 0-1.003 0.615-1.862 1.489-2.221l0.016-0.006 7.289-2.916v-5.259c0-1.326 1.075-2.401 2.401-2.401s2.401 1.075 2.401 2.401v0 3.335l3.911-1.565c0.278-0.122 0.602-0.193 0.942-0.193 1.326 0 2.401 1.075 2.401 2.401 0 1.024-0.642 1.899-1.545 2.244l-0.016 0.006-5.692 2.276v2.835l3.911-1.565c0.302-0.148 0.658-0.234 1.034-0.234 1.326 0 2.401 1.075 2.401 2.401 0 1.069-0.699 1.975-1.665 2.286l-0.017 0.005-5.692 2.276v7.677c3.864-1.096 10.413-3.726 10.413-8.984 0-1.326 1.075-2.401 2.401-2.401s2.401 1.075 2.401 2.401v0z"></path>
</symbol>

</defs>
</svg>