<svg xmlns="http://www.w3.org/2000/svg" width="20.744" height="20.744" viewBox="0 0 20.744 20.744">
  <path id="Path_11181" data-name="Path 11181" d="M20.744,15.165V11.159H16.559V7.92l1.395.837V4.549L10.372,0,8.19,1.309V0H4.185V3.712L2.79,4.549V8.757L4.185,7.92v3.24H0v4.005H1.395v4.364H0v1.215H20.744V19.529H19.349V15.165Zm-1.215-2.79v1.574H16.559V12.375Zm-7.672,7.154H8.887v-2.88a1.485,1.485,0,0,1,2.969,0v2.88Zm-1.485-5.58a2.7,2.7,0,0,0-2.7,2.7v2.88H5.4V12.375h9.944v7.154H13.072v-2.88A2.7,2.7,0,0,0,10.372,13.949ZM5.4,1.215H6.974v.823L5.4,2.983ZM4.005,5.238l6.367-3.82,6.367,3.82V6.61L10.372,2.79,4.005,6.61Zm6.367-1.03L15.344,7.19v3.969H5.4V7.19ZM1.215,12.375H4.185v1.574H1.215Zm1.395,2.79H4.185v4.364H2.61Zm15.523,4.364H16.559V15.165h1.574Z" fill="#001136"/>
</svg>
