<svg xmlns="http://www.w3.org/2000/svg" width="20.744" height="20.744" viewBox="0 0 20.744 20.744">
  <path id="placeholder" d="M17.619,6.974h-3.01a5.419,5.419,0,0,0,.56-2.179,4.8,4.8,0,0,0-9.59,0,5.419,5.419,0,0,0,.56,2.179H3.129L0,20.744H20.746ZM6.794,4.8a3.58,3.58,0,0,1,7.159,0c.054,1.929-2.4,4.436-3.58,5.394C9.2,9.231,6.741,6.724,6.794,4.8ZM4.1,8.19H6.848a16.676,16.676,0,0,0,3.527,3.545A16.676,16.676,0,0,0,13.9,8.19h2.748l.358,1.574H14.591L13.2,12.55H3.109ZM1.524,19.529,2.2,16.56H5.864l1.98,2.969Zm7.78,0-2.79-4.185H2.475l.358-1.579H13.947l1.395-2.785h1.941l.357,1.57H16.324l-1.392,2.794H8.509l2.79,4.185ZM10.78,16.56h4.9l1.392-2.794h.838l1.309,5.763H12.76Zm-.406-9.773a2,2,0,1,0-2-2A2,2,0,0,0,10.374,6.786Zm0-2.79a.787.787,0,1,1-.787.787A.788.788,0,0,1,10.374,4Z" transform="translate(-0.002)" fill="#001136"/>
</svg>
