<svg xmlns="http://www.w3.org/2000/svg" width="25" height="25" viewBox="0 0 25 25">
  <g id="telegram" transform="translate(-0.233 0.066)">
    <circle id="Ellipse_12" data-name="Ellipse 12" cx="12.5" cy="12.5" r="12.5" transform="translate(0.233 -0.066)" fill="#fff"/>
    <path id="Path_81" data-name="Path 81" d="M5.522,11.972l12.165-4.69c.565-.2,1.058.138.875.991h0L16.492,18.03c-.154.692-.565.86-1.14.534L12.2,16.24l-1.521,1.466a.8.8,0,0,1-.636.31l.224-3.21L16.11,9.524c.254-.224-.057-.35-.392-.127L8.494,13.946l-3.114-.972c-.676-.214-.691-.676.143-1Z" transform="translate(0.25 0.371)" fill="#3259fc"/>
  </g>
</svg>
