<svg id="whatsapp" xmlns="http://www.w3.org/2000/svg" width="26" height="26" viewBox="0 0 26 26">
  <path id="Path_82" data-name="Path 82" d="M13,0H13A12.992,12.992,0,0,0,2.475,20.62l-1.62,4.83,5-1.6A13,13,0,1,0,13,0Z" fill="#fff"/>
  <path id="Path_83" data-name="Path 83" d="M122.385,129.5a3.668,3.668,0,0,1-2.551,1.835c-.679.145-1.567.26-4.553-.978-3.82-1.583-6.281-5.465-6.472-5.717a7.425,7.425,0,0,1-1.544-3.921,4.15,4.15,0,0,1,1.329-3.164,1.889,1.889,0,0,1,1.329-.466c.161,0,.306.008.436.015.382.016.574.039.826.642.314.756,1.077,2.621,1.168,2.813a.774.774,0,0,1,.055.7,2.246,2.246,0,0,1-.421.6c-.192.221-.374.39-.566.627-.175.206-.374.427-.153.809a11.538,11.538,0,0,0,2.109,2.621,9.558,9.558,0,0,0,3.049,1.88.822.822,0,0,0,.917-.145,15.731,15.731,0,0,0,1.016-1.346.726.726,0,0,1,.933-.283c.351.122,2.208,1.04,2.59,1.23s.634.283.726.444A3.238,3.238,0,0,1,122.385,129.5Z" transform="translate(-101.817 -111.142)" fill="#3259fc"/>
</svg>
