<svg xmlns="http://www.w3.org/2000/svg" width="20.506" height="22.784" viewBox="0 0 20.506 22.784">
  <path id="Path_44" data-name="Path 44" d="M153.838,140.531c0,8.2-11.763,10.153-12.264,10.233a1.736,1.736,0,0,1-.267.02,1.71,1.71,0,0,1-1.709-1.709v-6.247l-3.923,1.57a1.741,1.741,0,0,1-.634.121,1.71,1.71,0,0,1-.633-3.3l5.191-2.076v-2.016l-3.923,1.57a1.68,1.68,0,0,1-.634.123,1.709,1.709,0,0,1-.633-3.3l5.191-2.076v-3.741a1.709,1.709,0,1,1,3.418,0v2.374l2.784-1.114a1.709,1.709,0,1,1,1.269,3.174l-4.053,1.621v2.018l2.784-1.115a1.709,1.709,0,1,1,1.269,3.174l-4.053,1.62v5.466c2.752-.78,7.4-2.653,7.4-6.4a1.709,1.709,0,0,1,3.418,0Z" transform="translate(-133.332 -128)" fill="#fff"/>
</svg>
